<svg width="25" height="24" viewBox="0 0 25 24" fill="none" xmlns="http://www.w3.org/2000/svg">
<path d="M1.34453 22.9348L1.3445 22.9348C1.02736 22.8032 0.820353 22.493 0.820353 22.1488V5.91075C0.820353 3.20308 3.01925 1.00047 5.72118 1.00047H19.3357C22.0377 1.00047 24.2366 3.20308 24.2366 5.91075V14.0298C24.2366 16.7374 22.0377 18.94 19.3357 18.94H6.56034C6.24613 18.94 5.95002 19.063 5.72789 19.2854L5.72786 19.2855L2.26937 22.7505C2.107 22.9131 1.88993 22.9996 1.66903 22.9996C1.55974 22.9996 1.44956 22.9784 1.34453 22.9348ZM2.51812 19.6987V20.0954L2.79837 19.8146L4.52764 18.0821C5.07095 17.5378 5.79231 17.2385 6.56034 17.2385H19.3357C21.1024 17.2385 22.5388 15.7989 22.5388 14.0298V5.91075C22.5388 4.1416 21.1024 2.70202 19.3357 2.70202H5.72118C3.95458 2.70202 2.51812 4.1416 2.51812 5.91075V19.6987Z" fill="black" stroke="#20222B" stroke-width="0.328205"/>
<path d="M11.2018 11.4102L11.2018 11.4102C11.5825 11.7817 12.0843 11.986 12.6157 11.986C13.1471 11.986 13.6489 11.7817 14.0295 11.4103L14.0295 11.4102L18.0319 7.50465L18.1199 7.59484L18.0319 7.50465C18.2661 7.27617 18.271 6.9007 18.043 6.6661L18.043 6.6661C17.8151 6.43164 17.4407 6.4267 17.2067 6.65505L13.2042 10.5606C13.2042 10.5606 13.2042 10.5606 13.2042 10.5606C13.046 10.715 12.8367 10.8003 12.6157 10.8003C12.3947 10.8003 12.1853 10.715 12.0271 10.5607L12.0271 10.5606L8.02469 6.65508L8.02469 6.65508C7.79072 6.42675 7.41635 6.4317 7.18841 6.66614L11.2018 11.4102ZM11.2018 11.4102L7.19941 7.50469M11.2018 11.4102L7.19941 7.50469M7.19941 7.50469C7.19941 7.50469 7.19941 7.50469 7.19941 7.50469M7.19941 7.50469L7.19941 7.50469M7.19941 7.50469C6.96529 7.27621 6.96034 6.90074 7.1884 6.66615L7.19941 7.50469Z" fill="black" stroke="" stroke-width="0.252015"/>
</svg>
