<svg width="24" height="26" viewBox="0 0 24 26" fill="none" xmlns="http://www.w3.org/2000/svg">
    <path d="M11.6454 4.3766L11.9988 4.72971L12.3522 4.3766C12.5116 4.21738 12.674 4.05039 12.8402 3.87962C13.3471 3.35859 13.8881 2.80247 14.4788 2.32524C15.264 1.69084 16.0407 1.27985 16.7988 1.27985C20.3188 1.27985 23.1988 4.22846 23.1988 7.89889C23.1988 10.9194 21.5139 14.0701 19.526 16.7523L19.526 16.7524C17.526 19.4512 15.1603 21.7538 13.6836 23.0886L13.6836 23.0886C12.7088 23.9699 11.2889 23.9699 10.314 23.0886C8.83737 21.7538 6.47161 19.4512 4.47163 16.7524L4.47162 16.7523C2.48385 14.0701 0.798828 10.9194 0.798828 7.89889C0.798828 4.22846 3.67882 1.27985 7.19883 1.27985C7.95692 1.27985 8.73367 1.69084 9.51887 2.32524C10.1095 2.80246 10.6505 3.35855 11.1574 3.87956C11.3236 4.05035 11.4861 4.21736 11.6454 4.3766Z" stroke="black"/>
</svg>
