<svg width="26" height="26" viewBox="0 0 26 26" fill="none" xmlns="http://www.w3.org/2000/svg">
    <path d="M24.2456 10.0903L15.6264 2.04146C14.907 1.36968 13.9749 1 13 1C12.0251 1 11.093 1.36968 10.3736 2.04146L1.75438 10.0903C1.27503 10.5381 1 11.1755 1 11.8393C1 13.0159 1.84389 13.9951 2.94595 14.1786V21.025C2.94595 23.2165 4.69211 25 6.83784 25H9.75676C10.1148 25 10.4054 24.7032 10.4054 24.3375V16.8598C10.4054 15.3983 11.5691 14.2097 13 14.2097C14.4309 14.2097 15.5946 15.3983 15.5946 16.8598V24.3375C15.5946 24.7032 15.8852 25 16.2432 25H19.1622C21.3079 25 23.0541 23.2165 23.0541 21.025V14.1786C24.1561 13.9951 25 13.0159 25 11.8393C25 11.1755 24.725 10.5381 24.2456 10.0903ZM22.6798 13.5466H22.4054V21.0243C22.4054 22.8535 20.9531 24.3368 19.1622 24.3368H16.2432V16.8591C16.2432 15.0299 14.7909 13.5466 13 13.5466C11.2091 13.5466 9.75676 15.0299 9.75676 16.8591V24.3368H6.83784C5.04692 24.3368 3.59459 22.8535 3.59459 21.0243V13.5466H3.32022C2.39719 13.5466 1.64865 12.782 1.64865 11.8393C1.64865 11.3596 1.84584 10.9025 2.19222 10.5792L10.8115 2.53039C12.0504 1.37365 13.9496 1.37365 15.1885 2.53039L23.8078 10.5792C24.1542 10.9025 24.3514 11.3603 24.3514 11.8393C24.3514 12.782 23.6028 13.5466 22.6798 13.5466Z" fill="black" stroke="black" stroke-width="0.3"/>
</svg>
