<svg width="19" height="19" viewBox="0 0 19 19" fill="none" xmlns="http://www.w3.org/2000/svg">
    <g clip-path="url(#clip0_853_489)">
        <path d="M1.00438 14.8447L1.34682 14.5323L1.51422 14.3796V14.6062V16.9833C1.51422 18.035 2.37006 18.8907 3.42175 18.8907H8.10985C9.16153 18.8907 10.0174 18.035 10.0174 16.9833V14.6062V14.3796L10.1848 14.5323L10.5272 14.8447L11.3903 13.8986L5.76587 8.76735L0.141273 13.8986L1.00438 14.8447ZM2.79497 13.2553V13.2112L2.82757 13.1814L5.69847 10.5625L5.76587 10.501L5.83327 10.5625L8.70402 13.1814L8.73663 13.2112V13.2553V16.9832C8.73663 17.3289 8.45557 17.61 8.10985 17.61H3.42175C3.07602 17.61 2.79497 17.3289 2.79497 16.9832V13.2553ZM15.1063 13.3558C13.7814 15.031 12.2749 16.4296 11.5111 17.101V18.7707L11.8136 18.5264C11.8136 18.5263 11.8136 18.5263 11.8136 18.5263C11.884 18.4694 13.5893 17.0849 15.3183 15.0999C17.7059 12.3587 18.9 9.91563 18.9 7.83573V7.62598C18.9 3.49669 15.5404 0.137109 11.4111 0.137109C7.28184 0.137109 3.92227 3.49669 3.92227 7.62598V7.83573C3.92227 7.94422 3.92585 8.05393 3.93262 8.16473L5.23725 6.97453C5.56396 3.85635 8.20781 1.41786 11.4111 1.41786C14.8343 1.41786 17.6192 4.20278 17.6192 7.62598V7.83573C17.6192 9.66039 16.4473 11.6602 15.1063 13.3558ZM4.73679 13.8711V15.8921H6.75784V13.8711H4.73679ZM11.4111 4.57936C9.73135 4.57936 8.36452 5.9462 8.36452 7.62598C8.36452 9.30576 9.73135 10.6726 11.4111 10.6726C13.0909 10.6726 14.4577 9.30576 14.4577 7.62598C14.4577 5.9462 13.0909 4.57936 11.4111 4.57936ZM11.4111 5.86011C12.385 5.86011 13.177 6.65215 13.177 7.62598C13.177 8.59966 12.385 9.39184 11.4111 9.39184C10.4374 9.39184 9.64527 8.59966 9.64527 7.62598C9.64527 6.65214 10.4375 5.86011 11.4111 5.86011Z" fill="black" stroke="#13141B" stroke-width="0.2"/>
    </g>
    <defs>
        <clipPath id="clip0_853_489">
            <rect width="19" height="19" fill="black" transform="matrix(-1 0 0 1 19 0)"/>
        </clipPath>
    </defs>
</svg>
