<svg width="14" height="14" viewBox="0 0 14 14" fill="none" xmlns="http://www.w3.org/2000/svg">
    <g clip-path="url(#clip0_907_2003)">
        <path d="M12.9684 6.27101C12.7269 6.27101 12.5309 6.07501 12.5309 5.83351C12.5309 4.15817 11.8788 2.58377 10.6946 1.39902C10.5237 1.22812 10.5237 0.95105 10.6946 0.780151C10.8655 0.609253 11.1425 0.609253 11.3136 0.780151C12.6628 2.12993 13.4059 3.9249 13.4059 5.83351C13.4059 6.07501 13.2099 6.27101 12.9684 6.27101Z" fill="black"/>
        <path d="M1.01172 6.27109C0.770218 6.27109 0.574219 6.07509 0.574219 5.83359C0.574219 3.92497 1.31741 2.13 2.66719 0.780762C2.83809 0.609863 3.11526 0.609863 3.28616 0.780762C3.45706 0.95166 3.45706 1.22884 3.28616 1.39973C2.10141 2.58385 1.44922 4.15825 1.44922 5.83359C1.44922 6.07509 1.25322 6.27109 1.01172 6.27109Z" fill="black"/>
        <path d="M6.99219 14.0002C5.78586 14.0002 4.80469 13.0191 4.80469 11.8127C4.80469 11.5712 5.00069 11.3752 5.24219 11.3752C5.48369 11.3752 5.67969 11.5712 5.67969 11.8127C5.67969 12.5367 6.26822 13.1252 6.99219 13.1252C7.71605 13.1252 8.30469 12.5367 8.30469 11.8127C8.30469 11.5712 8.50069 11.3752 8.74219 11.3752C8.98369 11.3752 9.17969 11.5712 9.17969 11.8127C9.17969 13.0191 8.19852 14.0002 6.99219 14.0002Z" fill="black"/>
        <path d="M11.8022 12.2502H2.17715C1.61415 12.2502 1.15625 11.7923 1.15625 11.2294C1.15625 10.9307 1.28635 10.6479 1.51332 10.4536C2.4005 9.70396 2.90625 8.61438 2.90625 7.45996V5.83354C2.90625 3.58195 4.73796 1.75024 6.98965 1.75024C9.24124 1.75024 11.073 3.58195 11.073 5.83354V7.45996C11.073 8.61438 11.5787 9.70396 12.4601 10.4495C12.6929 10.6479 12.823 10.9307 12.823 11.2294C12.823 11.7923 12.3651 12.2502 11.8022 12.2502ZM6.98965 2.62524C5.22032 2.62524 3.78125 4.06432 3.78125 5.83354V7.45996C3.78125 8.87212 3.16238 10.2057 2.0838 11.1174C2.0634 11.1349 2.03125 11.1711 2.03125 11.2294C2.03125 11.3087 2.09779 11.3752 2.17715 11.3752H11.8022C11.8814 11.3752 11.948 11.3087 11.948 11.2294C11.948 11.1711 11.9159 11.1349 11.8966 11.1186C10.8168 10.2057 10.198 8.87212 10.198 7.45996V5.83354C10.198 4.06432 8.75888 2.62524 6.98965 2.62524Z" fill="black"/>
        <path d="M6.99219 2.62524C6.75069 2.62524 6.55469 2.42924 6.55469 2.18774V0.437744C6.55469 0.196243 6.75069 0.000244141 6.99219 0.000244141C7.23369 0.000244141 7.42969 0.196243 7.42969 0.437744V2.18774C7.42969 2.42924 7.23369 2.62524 6.99219 2.62524Z" fill="black"/>
    </g>
    <defs>
        <clipPath id="clip0_907_2003">
            <rect width="14" height="14" fill="black"/>
        </clipPath>
    </defs>
</svg>
