<svg width="24" height="24" viewBox="0 0 24 24" fill="none" xmlns="http://www.w3.org/2000/svg">
    <path d="M9.89062 19.7571C15.3443 19.7571 19.7812 15.3141 19.7812 9.85297C19.238 -3.28624 0.541311 -3.28244 0 9.85306C0 15.3141 4.43695 19.7571 9.89062 19.7571ZM9.89062 1.82637C14.3105 1.82637 17.9062 5.42707 17.9062 9.85297C17.466 20.5013 2.31365 20.4982 1.875 9.85292C1.875 5.42707 5.47078 1.82637 9.89062 1.82637ZM22.4015 23.7269L18.1827 19.5259C17.8156 19.1602 17.814 18.5659 18.179 18.1982C18.5442 17.8305 19.1378 17.829 19.5048 18.1945L23.7236 22.3956C24.0907 22.7612 24.0923 23.3556 23.7273 23.7232C23.544 23.9077 23.3033 24 23.0625 24C22.8234 24 22.5843 23.909 22.4015 23.7269Z" fill="black"/>
</svg>
