<?xml version="1.0" encoding="UTF-8"?>
<svg version="1.1" xmlns="http://www.w3.org/2000/svg" width="500" height="500">
<path d="M0 0 C165 0 330 0 500 0 C500 165 500 330 500 500 C335 500 170 500 0 500 C0 335 0 170 0 0 Z " fill="#47CBEA" transform="translate(0,0)"/>
<path d="M0 0 C11.42722824 7.61869469 20.33168332 18.29715871 28.75 29 C30.20399695 30.79518757 31.66240545 32.5868102 33.125 34.375 C34.23488281 35.73238281 34.23488281 35.73238281 35.3671875 37.1171875 C38.42896642 40.82143807 41.53628043 44.48572222 44.65039062 48.14599609 C48.39917439 52.56043942 52.056669 57.04405868 55.6796875 61.5625 C59.61419333 66.6360964 59.61419333 66.6360964 65.03125 69.62890625 C69.0660385 69.50814674 71.2438134 69.31636663 74.75 67.125 C77.30577021 64.40949415 77.70147671 63.50464223 78.0625 59.75 C77.51216304 53.14595646 72.77025133 48.673998 68.5625 43.8125 C67.57868068 42.66339904 66.59561829 41.51364963 65.61328125 40.36328125 C65.12811035 39.79561035 64.64293945 39.22793945 64.14306641 38.64306641 C61.40248602 35.41066087 58.7453454 32.11006633 56.07421875 28.8203125 C54.38776549 26.77389359 52.68696345 24.75110296 50.95703125 22.7421875 C50.47621094 22.18208984 49.99539063 21.62199219 49.5 21.04492188 C48.58108684 19.97743445 47.65827508 18.91328268 46.73046875 17.85351562 C42.99050138 13.50328412 39.85787302 8.81649547 36.75 4 C40.49378394 2.38105413 44.24604712 0.78270811 48 -0.8125 C49.04414063 -1.26431641 50.08828125 -1.71613281 51.1640625 -2.18164062 C61.53311435 -6.56608539 71.42729181 -9.57072627 82.75 -9.375 C83.61302734 -9.36557373 84.47605469 -9.35614746 85.36523438 -9.34643555 C92.15861432 -9.18653885 98.32354418 -8.29253223 104.75 -6 C105.75289062 -5.64808594 106.75578125 -5.29617187 107.7890625 -4.93359375 C125.75015452 1.95528079 138.38345514 15.23657572 146.3671875 32.49609375 C153.11776073 49.60135981 152.42423792 67.11395779 145.75 84 C138.12383425 101.37906505 122.8679457 115.04023605 109.54833984 128.16601562 C107.74210654 130.00804992 106.05007983 131.91358622 104.375 133.875 C101.63378551 137.06682509 98.74314112 140.04302977 95.75 143 C92.81881809 145.89591958 89.98596826 148.80242571 87.3125 151.9375 C84.00653882 155.80617798 80.41855322 159.36064305 76.79931641 162.93115234 C73.55015827 166.15350409 70.52563666 169.49331816 67.55859375 172.97265625 C64.57349884 176.31879936 61.34117232 179.41593952 58.15234375 182.56640625 C56.11285627 184.63242365 54.194922 186.73005549 52.3125 188.9375 C49.38281726 192.33926431 46.32530397 195.60289032 43.1875 198.8125 C42.29933594 199.72644531 41.41117188 200.64039063 40.49609375 201.58203125 C35.35670348 206.10732653 31.19181269 207.44377886 24.375 207.5 C22.50714844 207.54640625 22.50714844 207.54640625 20.6015625 207.59375 C11.36510619 206.16987438 5.46086273 199.1210763 -0.8125 192.6875 C-1.62396484 191.87087891 -2.43542969 191.05425781 -3.27148438 190.21289062 C-7.5667547 185.86215273 -11.68948506 181.4155531 -15.67944336 176.78442383 C-17.9263659 174.23153143 -20.31648259 171.87625817 -22.75 169.5 C-26.4930589 165.81289306 -30.03256114 162.02476643 -33.44140625 158.02734375 C-35.61958492 155.58571366 -37.92248008 153.29951968 -40.25 151 C-43.18118191 148.10408042 -46.01403174 145.19757429 -48.6875 142.0625 C-51.55172335 138.71074927 -54.61333716 135.59443244 -57.75 132.5 C-61.49030338 128.81005412 -65.0323935 125.02496302 -68.44140625 121.02734375 C-70.61958492 118.58571366 -72.92248008 116.29951968 -75.25 114 C-91.67524958 97.64907281 -102.41202754 80.54380131 -102.5 56.75 C-102.4397393 39.38173633 -95.43834433 22.51657622 -83.25 10 C-60.98646276 -11.37865897 -26.65048782 -16.51553479 0 0 Z " fill="#FFFFFF" transform="translate(240.25,201)"/>
<path d="M0 0 C9.37324239 8.544014 16.38985408 20.03623861 17.265625 32.90234375 C17.27467968 34.24737544 17.26914886 35.59257415 17.25 36.9375 C17.23658569 38.00170166 17.23658569 38.00170166 17.22290039 39.08740234 C16.95741656 51.03004819 12.07936351 63.6983012 3.71484375 72.484375 C-2.83051299 78.26933722 -9.71852059 82.26697446 -18 85 C-18.96486328 85.33837891 -18.96486328 85.33837891 -19.94921875 85.68359375 C-31.77860496 89.27952876 -43.78244524 86.87887448 -54.72265625 81.71484375 C-63.71857675 76.72328972 -71.46110831 69.2947157 -76 60 C-76.5878125 58.81470703 -76.5878125 58.81470703 -77.1875 57.60546875 C-81.80334897 46.40241866 -82.3865381 30.68775983 -78 19.3125 C-76.609375 16.6015625 -76.609375 16.6015625 -75 14 C-74.40703125 13.03835937 -73.8140625 12.07671875 -73.203125 11.0859375 C-66.05080463 0.47189407 -55.84885124 -7.34321264 -43.25 -10.3125 C-27.2826535 -12.88626634 -12.80670435 -10.15569706 0 0 Z " fill="#FFFFFF" transform="translate(183,103)"/>
<path d="M0 0 C1.12341797 0.60328125 1.12341797 0.60328125 2.26953125 1.21875 C8.2546847 4.79197594 11.64714717 8.94982006 15 15 C15.928125 16.546875 15.928125 16.546875 16.875 18.125 C19.71204144 25.41296874 19.05755925 35.11153174 16.5 42.375 C12.01951719 51.82331638 4.70768681 58.18372982 -5.03125 61.7421875 C-14.1353052 64.37947333 -22.60373036 63.42219258 -31 59 C-38.22682861 53.65092883 -44.16382176 47.66345202 -47 39 C-48.06397624 26.78901689 -47.32427194 16.95834363 -39.3125 7.1875 C-29.37022866 -3.31228188 -13.12894849 -7.26633627 0 0 Z " fill="#FFFFFF" transform="translate(379,127)"/>
</svg>
